<svg width="38" height="37" viewBox="0 0 38 37" fill="none" xmlns="http://www.w3.org/2000/svg">
<path d="M0.859152 25.4286H18.4266C18.5394 25.4287 18.6512 25.4065 18.7554 25.3634C18.8597 25.3202 18.9545 25.2569 19.0343 25.1771C19.1141 25.0973 19.1773 25.0026 19.2205 24.8983C19.2636 24.794 19.2858 24.6823 19.2857 24.5694V22.002C19.2858 21.8892 19.2636 21.7774 19.2205 21.6731C19.1773 21.5688 19.1141 21.4741 19.0343 21.3943C18.9545 21.3145 18.8597 21.2512 18.7554 21.2081C18.6512 21.1649 18.5394 21.1428 18.4266 21.1429H0.859152C0.746302 21.1428 0.634542 21.1649 0.530265 21.2081C0.425988 21.2512 0.331241 21.3145 0.251444 21.3943C0.171646 21.4741 0.108365 21.5688 0.0652199 21.6731C0.0220747 21.7774 -8.77996e-05 21.8892 2.61399e-07 22.002V24.5694C-8.77996e-05 24.6823 0.0220747 24.794 0.0652199 24.8983C0.108365 25.0026 0.171646 25.0973 0.251444 25.1771C0.331241 25.2569 0.425988 25.3202 0.530265 25.3634C0.634542 25.4065 0.746302 25.4287 0.859152 25.4286ZM0.859152 8.28571H18.4266C18.5394 8.2858 18.6512 8.26364 18.7554 8.22049C18.8597 8.17735 18.9545 8.11407 19.0343 8.03427C19.1141 7.95447 19.1773 7.85973 19.2205 7.75545C19.2636 7.65117 19.2858 7.53941 19.2857 7.42656V4.85915C19.2858 4.7463 19.2636 4.63454 19.2205 4.53026C19.1773 4.42599 19.1141 4.33124 19.0343 4.25144C18.9545 4.17165 18.8597 4.10837 18.7554 4.06522C18.6512 4.02207 18.5394 3.99991 18.4266 4H0.859152C0.746302 3.99991 0.634542 4.02207 0.530265 4.06522C0.425988 4.10837 0.331241 4.17165 0.251444 4.25144C0.171646 4.33124 0.108365 4.42599 0.0652199 4.53026C0.0220747 4.63454 -8.77996e-05 4.7463 2.61399e-07 4.85915V7.42656C-8.77996e-05 7.53941 0.0220747 7.65117 0.0652199 7.75545C0.108365 7.85973 0.171646 7.95447 0.251444 8.03427C0.331241 8.11407 0.425988 8.17735 0.530265 8.22049C0.634542 8.26364 0.746302 8.2858 0.859152 8.28571ZM28.9286 12.5714H1.07143C0.787268 12.5714 0.514746 12.6843 0.313814 12.8852C0.112883 13.0862 2.61399e-07 13.3587 2.61399e-07 13.6429V15.7857C2.61399e-07 16.0699 0.112883 16.3424 0.313814 16.5433C0.514746 16.7443 0.787268 16.8571 1.07143 16.8571H28.9286C29.2127 16.8571 29.4853 16.7443 29.6862 16.5433C29.8871 16.3424 30 16.0699 30 15.7857V13.6429C30 13.3587 29.8871 13.0862 29.6862 12.8852C29.4853 12.6843 29.2127 12.5714 28.9286 12.5714ZM28.9286 29.7143H1.07143C0.787268 29.7143 0.514746 29.8272 0.313814 30.0281C0.112883 30.229 2.61399e-07 30.5016 2.61399e-07 30.7857V32.9286C2.61399e-07 33.2127 0.112883 33.4853 0.313814 33.6862C0.514746 33.8871 0.787268 34 1.07143 34H28.9286C29.2127 34 29.4853 33.8871 29.6862 33.6862C29.8871 33.4853 30 33.2127 30 32.9286V30.7857C30 30.5016 29.8871 30.229 29.6862 30.0281C29.4853 29.8272 29.2127 29.7143 28.9286 29.7143Z" fill="black"/>
<path d="M25 9.12C24.8533 9.12 24.6833 9.1 24.49 9.06C24.3033 9.02667 24.12 8.96 23.94 8.86C23.7667 8.76 23.6233 8.61333 23.51 8.42C23.3967 8.22 23.34 7.96 23.34 7.64C23.34 7.28 23.42 6.98333 23.58 6.75C23.74 6.51 23.9633 6.32333 24.25 6.19C24.5433 6.05 24.89 5.95333 25.29 5.9C25.6967 5.84 26.14 5.81 26.62 5.81V5.38C26.62 5.22667 26.5967 5.09 26.55 4.97C26.5033 4.85 26.4167 4.75667 26.29 4.69C26.17 4.61667 25.9867 4.58 25.74 4.58C25.4933 4.58 25.3 4.61 25.16 4.67C25.02 4.73 24.9233 4.80333 24.87 4.89C24.8167 4.97667 24.79 5.06667 24.79 5.16V5.3H23.61C23.6033 5.26667 23.6 5.23333 23.6 5.2C23.6 5.16667 23.6 5.12667 23.6 5.08C23.6 4.78 23.69 4.52 23.87 4.3C24.05 4.08 24.3 3.91333 24.62 3.8C24.94 3.68 25.31 3.62 25.73 3.62C26.21 3.62 26.6033 3.68667 26.91 3.82C27.2233 3.95333 27.4567 4.14333 27.61 4.39C27.7633 4.63667 27.84 4.93667 27.84 5.29V7.77C27.84 7.89667 27.8767 7.98667 27.95 8.04C28.0233 8.09333 28.1033 8.12 28.19 8.12H28.51V8.96C28.4433 8.98667 28.3467 9.01667 28.22 9.05C28.0933 9.09 27.9367 9.11 27.75 9.11C27.5767 9.11 27.42 9.08 27.28 9.02C27.1467 8.96667 27.0333 8.88667 26.94 8.78C26.8467 8.67333 26.78 8.54667 26.74 8.4H26.68C26.5667 8.54 26.43 8.66667 26.27 8.78C26.1167 8.88667 25.9333 8.97 25.72 9.03C25.5133 9.09 25.2733 9.12 25 9.12ZM25.37 8.12C25.57 8.12 25.7467 8.09 25.9 8.03C26.06 7.97 26.19 7.88667 26.29 7.78C26.3967 7.67333 26.4767 7.54333 26.53 7.39C26.59 7.23667 26.62 7.07 26.62 6.89V6.65C26.2533 6.65 25.9133 6.67333 25.6 6.72C25.2933 6.76667 25.0467 6.85333 24.86 6.98C24.68 7.10667 24.59 7.28667 24.59 7.52C24.59 7.64 24.6167 7.74667 24.67 7.84C24.73 7.92667 24.8167 7.99667 24.93 8.05C25.05 8.09667 25.1967 8.12 25.37 8.12Z" fill="black"/>
<path d="M35.44 17.12C35.1 17.12 34.79 17.0533 34.51 16.92C34.23 16.78 34.0033 16.5733 33.83 16.3H33.76L33.66 17H32.65V9.77H33.87V12.35H33.93C34.0367 12.19 34.1667 12.0567 34.32 11.95C34.4733 11.8367 34.65 11.7533 34.85 11.7C35.05 11.6467 35.27 11.62 35.51 11.62C35.9033 11.62 36.25 11.7167 36.55 11.91C36.8567 12.1033 37.0967 12.4033 37.27 12.81C37.4433 13.21 37.53 13.7267 37.53 14.36C37.53 15 37.4433 15.5233 37.27 15.93C37.1033 16.3367 36.8633 16.6367 36.55 16.83C36.2433 17.0233 35.8733 17.12 35.44 17.12ZM35.06 16.07C35.36 16.07 35.5967 16.0133 35.77 15.9C35.95 15.78 36.0767 15.6 36.15 15.36C36.23 15.12 36.27 14.8167 36.27 14.45V14.31C36.27 13.9367 36.23 13.63 36.15 13.39C36.0767 13.1433 35.95 12.9633 35.77 12.85C35.5967 12.73 35.36 12.67 35.06 12.67C34.8533 12.67 34.6733 12.7067 34.52 12.78C34.3733 12.8533 34.25 12.96 34.15 13.1C34.0567 13.24 33.9867 13.4133 33.94 13.62C33.8933 13.8267 33.87 14.06 33.87 14.32V14.45C33.87 14.7967 33.91 15.09 33.99 15.33C34.0767 15.57 34.2067 15.7533 34.38 15.88C34.56 16.0067 34.7867 16.07 35.06 16.07Z" fill="black"/>
<path d="M24.84 26.12C24.2933 26.12 23.8367 26.0233 23.47 25.83C23.11 25.63 22.84 25.3267 22.66 24.92C22.48 24.5133 22.39 23.9967 22.39 23.37C22.39 22.7367 22.48 22.22 22.66 21.82C22.8467 21.4133 23.12 21.1133 23.48 20.92C23.8467 20.72 24.3 20.62 24.84 20.62C25.1933 20.62 25.5067 20.6633 25.78 20.75C26.0533 20.8367 26.2867 20.97 26.48 21.15C26.68 21.3233 26.83 21.54 26.93 21.8C27.03 22.06 27.08 22.3633 27.08 22.71H25.84C25.84 22.4633 25.8033 22.26 25.73 22.1C25.6567 21.94 25.5433 21.82 25.39 21.74C25.2433 21.6533 25.0533 21.61 24.82 21.61C24.5467 21.61 24.3233 21.6733 24.15 21.8C23.9767 21.9267 23.8467 22.1167 23.76 22.37C23.68 22.6167 23.64 22.93 23.64 23.31V23.44C23.64 23.8133 23.68 24.1267 23.76 24.38C23.8467 24.6333 23.98 24.8233 24.16 24.95C24.34 25.07 24.5767 25.13 24.87 25.13C25.0967 25.13 25.2833 25.09 25.43 25.01C25.5833 24.9233 25.7 24.7967 25.78 24.63C25.86 24.4633 25.9 24.2633 25.9 24.03H27.08C27.08 24.3567 27.03 24.65 26.93 24.91C26.83 25.17 26.6833 25.39 26.49 25.57C26.2967 25.75 26.06 25.8867 25.78 25.98C25.5067 26.0733 25.1933 26.12 24.84 26.12Z" fill="black"/>
<path d="M34.48 35.12C34.0533 35.12 33.6833 35.0233 33.37 34.83C33.0567 34.6367 32.8133 34.3367 32.64 33.93C32.4733 33.5233 32.39 33 32.39 32.36C32.39 31.7267 32.4767 31.21 32.65 30.81C32.8233 30.4033 33.0633 30.1033 33.37 29.91C33.6767 29.7167 34.0233 29.62 34.41 29.62C34.65 29.62 34.87 29.6467 35.07 29.7C35.27 29.7533 35.4467 29.8367 35.6 29.95C35.7533 30.0567 35.8833 30.19 35.99 30.35H36.05V27.77H37.27V35H36.26L36.16 34.3H36.09C35.9233 34.5733 35.6967 34.78 35.41 34.92C35.13 35.0533 34.82 35.12 34.48 35.12ZM34.86 34.07C35.14 34.07 35.3667 34.0067 35.54 33.88C35.7133 33.7533 35.84 33.57 35.92 33.33C36.0067 33.09 36.05 32.7967 36.05 32.45V32.32C36.05 32.06 36.0267 31.8267 35.98 31.62C35.9333 31.4133 35.86 31.24 35.76 31.1C35.6667 30.96 35.5433 30.8533 35.39 30.78C35.2433 30.7067 35.0667 30.67 34.86 30.67C34.56 30.67 34.32 30.73 34.14 30.85C33.9667 30.9633 33.84 31.1433 33.76 31.39C33.6867 31.63 33.65 31.9367 33.65 32.31V32.45C33.65 32.8167 33.6867 33.12 33.76 33.36C33.84 33.6 33.9667 33.78 34.14 33.9C34.32 34.0133 34.56 34.07 34.86 34.07Z" fill="black"/>
</svg>
